<mxfile host="app.diagrams.net" modified="2024-04-10T01:42:24.326Z" agent="Mozilla/5.0 (Macintosh; Intel Mac OS X 10_15_7) AppleWebKit/537.36 (KHTML, like Gecko) Chrome/123.0.0.0 Safari/537.36" etag="u1JuufPTLxIzyTrJ5Vaa" version="24.2.2" type="device" pages="4">
  <diagram name="Requisitos" id="lJUJxM3z3kf8wdqePnnX">
    <mxGraphModel dx="1194" dy="615" grid="1" gridSize="10" guides="1" tooltips="1" connect="1" arrows="1" fold="1" page="1" pageScale="1" pageWidth="850" pageHeight="1100" math="0" shadow="0">
      <root>
        <mxCell id="0" />
        <mxCell id="1" parent="0" />
        <mxCell id="0IMdVcgSnAzkUu-0e4jD-1" value="&lt;h1 style=&quot;margin-top: 0px;&quot;&gt;&lt;span style=&quot;background-color: initial;&quot;&gt;AUTH&lt;/span&gt;&lt;/h1&gt;&lt;h1 style=&quot;margin-top: 0px;&quot;&gt;&lt;span style=&quot;font-size: 12px; font-weight: 400;&quot;&gt;- Retorna Token JWT para depois poder bater na aplicacao de produtos&lt;/span&gt;&lt;/h1&gt;&lt;div&gt;&lt;span style=&quot;font-size: 12px; font-weight: 400;&quot;&gt;- Nao precisa de usuario cadastrado real ainda&amp;nbsp;&lt;/span&gt;&lt;/div&gt;" style="text;html=1;whiteSpace=wrap;overflow=hidden;rounded=0;" vertex="1" parent="1">
          <mxGeometry x="50" y="40" width="380" height="200" as="geometry" />
        </mxCell>
        <mxCell id="0IMdVcgSnAzkUu-0e4jD-2" value="&lt;h1 style=&quot;margin-top: 0px;&quot;&gt;&lt;span style=&quot;background-color: initial;&quot;&gt;API PRODUTOS&lt;/span&gt;&lt;/h1&gt;&lt;h1 style=&quot;margin-top: 0px;&quot;&gt;&lt;span style=&quot;font-size: 12px; font-weight: 400;&quot;&gt;-API REST&lt;/span&gt;&lt;/h1&gt;&lt;div&gt;- ACOMPLAMENTOS, BANCO DE DADOS E AUTH(QUANDO TIVER)&lt;/div&gt;&lt;div&gt;&lt;br&gt;&lt;/div&gt;&lt;div&gt;- ENDPOINTS&amp;nbsp;&amp;nbsp;&lt;/div&gt;&lt;div&gt;&amp;nbsp; &amp;nbsp;GET /produtos&lt;/div&gt;&lt;div&gt;&amp;nbsp; &amp;nbsp;GET /produtos/{}&lt;/div&gt;&lt;div&gt;&amp;nbsp; &amp;nbsp;PUT /produtos&lt;/div&gt;&lt;div&gt;&amp;nbsp; &amp;nbsp;&lt;span style=&quot;background-color: initial;&quot;&gt;POST /produtos&lt;/span&gt;&lt;span style=&quot;background-color: initial;&quot;&gt;&amp;nbsp;&lt;/span&gt;&lt;/div&gt;&lt;div&gt;&lt;br&gt;&lt;/div&gt;&lt;div&gt;&lt;br&gt;&lt;/div&gt;&lt;div&gt;Entidades&lt;/div&gt;&lt;div&gt;&amp;nbsp;- Produto : id, descricao, data de cadastro&amp;nbsp;&lt;/div&gt;" style="text;html=1;whiteSpace=wrap;overflow=hidden;rounded=0;" vertex="1" parent="1">
          <mxGeometry x="45" y="210" width="380" height="290" as="geometry" />
        </mxCell>
        <mxCell id="0IMdVcgSnAzkUu-0e4jD-3" value="&lt;h1 style=&quot;margin-top: 0px;&quot;&gt;&lt;span style=&quot;background-color: initial;&quot;&gt;BANCO DE PRODUTOS&amp;nbsp;&lt;/span&gt;&lt;/h1&gt;&lt;div&gt;&lt;span style=&quot;background-color: initial;&quot;&gt;&lt;br&gt;&lt;/span&gt;&lt;/div&gt;&lt;div&gt;&lt;span style=&quot;background-color: initial;&quot;&gt;- Bando de dados sqs&amp;nbsp;&lt;/span&gt;&lt;/div&gt;&lt;div&gt;&lt;span style=&quot;background-color: initial;&quot;&gt;- Carga de dados inicial&amp;nbsp;&lt;/span&gt;&lt;/div&gt;&lt;div&gt;- Modelado com base na api de produtos&lt;/div&gt;&lt;div&gt;&lt;br&gt;&lt;/div&gt;" style="text;html=1;whiteSpace=wrap;overflow=hidden;rounded=0;" vertex="1" parent="1">
          <mxGeometry x="500" y="30" width="380" height="290" as="geometry" />
        </mxCell>
      </root>
    </mxGraphModel>
  </diagram>
  <diagram id="taKNbd2nmG1c9EEs-Nes" name="Diagram">
    <mxGraphModel dx="1194" dy="615" grid="1" gridSize="10" guides="1" tooltips="1" connect="1" arrows="1" fold="1" page="1" pageScale="1" pageWidth="850" pageHeight="1100" math="0" shadow="0">
      <root>
        <mxCell id="0" />
        <mxCell id="1" parent="0" />
        <mxCell id="4VG0_eF0u8h1W3i9cFiR-2" value="" style="rounded=0;whiteSpace=wrap;html=1;" vertex="1" parent="1">
          <mxGeometry x="270" y="40" width="200" height="160" as="geometry" />
        </mxCell>
        <mxCell id="4VG0_eF0u8h1W3i9cFiR-3" value="" style="image;sketch=0;aspect=fixed;html=1;points=[];align=center;fontSize=12;image=img/lib/mscae/Docker.svg;" vertex="1" parent="1">
          <mxGeometry x="390" y="53" width="50" height="41" as="geometry" />
        </mxCell>
        <mxCell id="4VG0_eF0u8h1W3i9cFiR-4" value="API PRODUTOS" style="rounded=0;whiteSpace=wrap;html=1;fillColor=#B9E0A5;" vertex="1" parent="1">
          <mxGeometry x="310" y="110" width="120" height="60" as="geometry" />
        </mxCell>
        <mxCell id="4VG0_eF0u8h1W3i9cFiR-5" value="" style="rounded=0;whiteSpace=wrap;html=1;" vertex="1" parent="1">
          <mxGeometry x="510" y="40" width="200" height="160" as="geometry" />
        </mxCell>
        <mxCell id="4VG0_eF0u8h1W3i9cFiR-6" value="" style="image;sketch=0;aspect=fixed;html=1;points=[];align=center;fontSize=12;image=img/lib/mscae/Docker.svg;" vertex="1" parent="1">
          <mxGeometry x="655" y="53" width="50" height="41" as="geometry" />
        </mxCell>
        <mxCell id="4VG0_eF0u8h1W3i9cFiR-7" value="&lt;font style=&quot;font-size: 9px;&quot;&gt;PRODUTOS&lt;/font&gt;" style="shape=cylinder3;whiteSpace=wrap;html=1;boundedLbl=1;backgroundOutline=1;size=15;fillColor=#7DF6FF;" vertex="1" parent="1">
          <mxGeometry x="580" y="100" width="60" height="80" as="geometry" />
        </mxCell>
        <mxCell id="4VG0_eF0u8h1W3i9cFiR-8" style="edgeStyle=orthogonalEdgeStyle;rounded=0;orthogonalLoop=1;jettySize=auto;html=1;" edge="1" parent="1" source="4VG0_eF0u8h1W3i9cFiR-4" target="4VG0_eF0u8h1W3i9cFiR-7">
          <mxGeometry relative="1" as="geometry" />
        </mxCell>
        <mxCell id="4VG0_eF0u8h1W3i9cFiR-9" value="localhost" style="text;html=1;align=center;verticalAlign=middle;whiteSpace=wrap;rounded=0;" vertex="1" parent="1">
          <mxGeometry x="340" y="34" width="60" height="30" as="geometry" />
        </mxCell>
        <mxCell id="4VG0_eF0u8h1W3i9cFiR-10" value="localhost" style="text;html=1;align=center;verticalAlign=middle;whiteSpace=wrap;rounded=0;" vertex="1" parent="1">
          <mxGeometry x="580" y="40" width="60" height="30" as="geometry" />
        </mxCell>
        <mxCell id="4VG0_eF0u8h1W3i9cFiR-11" value="" style="outlineConnect=0;dashed=0;verticalLabelPosition=bottom;verticalAlign=top;align=center;html=1;shape=mxgraph.aws3.postgre_sql_instance;fillColor=#2E73B8;gradientColor=none;" vertex="1" parent="1">
          <mxGeometry x="520" y="64" width="40" height="40" as="geometry" />
        </mxCell>
        <mxCell id="4VG0_eF0u8h1W3i9cFiR-13" value="" style="outlineConnect=0;dashed=0;verticalLabelPosition=bottom;verticalAlign=top;align=center;html=1;shape=mxgraph.aws3.android;fillColor=#8CC64F;gradientColor=none;" vertex="1" parent="1">
          <mxGeometry x="290" y="53" width="40" height="47" as="geometry" />
        </mxCell>
        <mxCell id="4VG0_eF0u8h1W3i9cFiR-23" style="edgeStyle=orthogonalEdgeStyle;rounded=0;orthogonalLoop=1;jettySize=auto;html=1;" edge="1" parent="1" source="4VG0_eF0u8h1W3i9cFiR-14" target="4VG0_eF0u8h1W3i9cFiR-16">
          <mxGeometry relative="1" as="geometry" />
        </mxCell>
        <mxCell id="4VG0_eF0u8h1W3i9cFiR-24" value="Manual execution" style="edgeLabel;html=1;align=center;verticalAlign=middle;resizable=0;points=[];" vertex="1" connectable="0" parent="4VG0_eF0u8h1W3i9cFiR-23">
          <mxGeometry x="0.0857" y="2" relative="1" as="geometry">
            <mxPoint as="offset" />
          </mxGeometry>
        </mxCell>
        <mxCell id="4VG0_eF0u8h1W3i9cFiR-14" value="QA" style="shape=umlActor;verticalLabelPosition=bottom;verticalAlign=top;html=1;outlineConnect=0;" vertex="1" parent="1">
          <mxGeometry x="130" y="460" width="30" height="60" as="geometry" />
        </mxCell>
        <mxCell id="4VG0_eF0u8h1W3i9cFiR-26" style="edgeStyle=orthogonalEdgeStyle;rounded=0;orthogonalLoop=1;jettySize=auto;html=1;" edge="1" parent="1" source="4VG0_eF0u8h1W3i9cFiR-16" target="4VG0_eF0u8h1W3i9cFiR-4">
          <mxGeometry relative="1" as="geometry" />
        </mxCell>
        <mxCell id="4VG0_eF0u8h1W3i9cFiR-16" value="HTTP CLIENT" style="rounded=0;whiteSpace=wrap;html=1;" vertex="1" parent="1">
          <mxGeometry x="80" y="330" width="120" height="60" as="geometry" />
        </mxCell>
        <mxCell id="4VG0_eF0u8h1W3i9cFiR-18" value="" style="rounded=0;whiteSpace=wrap;html=1;" vertex="1" parent="1">
          <mxGeometry x="40" y="40" width="200" height="160" as="geometry" />
        </mxCell>
        <mxCell id="4VG0_eF0u8h1W3i9cFiR-19" value="" style="image;sketch=0;aspect=fixed;html=1;points=[];align=center;fontSize=12;image=img/lib/mscae/Docker.svg;" vertex="1" parent="1">
          <mxGeometry x="160" y="53" width="50" height="41" as="geometry" />
        </mxCell>
        <mxCell id="4VG0_eF0u8h1W3i9cFiR-20" value="AUTH" style="rounded=0;whiteSpace=wrap;html=1;fillColor=#B9E0A5;" vertex="1" parent="1">
          <mxGeometry x="80" y="110" width="120" height="60" as="geometry" />
        </mxCell>
        <mxCell id="4VG0_eF0u8h1W3i9cFiR-21" value="localhost" style="text;html=1;align=center;verticalAlign=middle;whiteSpace=wrap;rounded=0;" vertex="1" parent="1">
          <mxGeometry x="110" y="34" width="60" height="30" as="geometry" />
        </mxCell>
        <mxCell id="4VG0_eF0u8h1W3i9cFiR-22" value="" style="outlineConnect=0;dashed=0;verticalLabelPosition=bottom;verticalAlign=top;align=center;html=1;shape=mxgraph.aws3.android;fillColor=#8CC64F;gradientColor=none;" vertex="1" parent="1">
          <mxGeometry x="60" y="53" width="40" height="47" as="geometry" />
        </mxCell>
        <mxCell id="YXmjVRTK3bGMYj-1wJMt-4" style="edgeStyle=orthogonalEdgeStyle;rounded=0;orthogonalLoop=1;jettySize=auto;html=1;" edge="1" parent="1" source="YXmjVRTK3bGMYj-1wJMt-1" target="4VG0_eF0u8h1W3i9cFiR-4">
          <mxGeometry relative="1" as="geometry" />
        </mxCell>
        <mxCell id="YXmjVRTK3bGMYj-1wJMt-1" value="AUTOMATION" style="rounded=0;whiteSpace=wrap;html=1;" vertex="1" parent="1">
          <mxGeometry x="450" y="330" width="120" height="60" as="geometry" />
        </mxCell>
        <mxCell id="YXmjVRTK3bGMYj-1wJMt-3" value="" style="edgeStyle=orthogonalEdgeStyle;rounded=0;orthogonalLoop=1;jettySize=auto;html=1;" edge="1" parent="1" source="YXmjVRTK3bGMYj-1wJMt-2" target="YXmjVRTK3bGMYj-1wJMt-1">
          <mxGeometry relative="1" as="geometry" />
        </mxCell>
        <mxCell id="YXmjVRTK3bGMYj-1wJMt-2" value="" style="html=1;verticalLabelPosition=bottom;align=center;labelBackgroundColor=#ffffff;verticalAlign=top;strokeWidth=2;strokeColor=#0080F0;shadow=0;dashed=0;shape=mxgraph.ios7.icons.alarm_clock;" vertex="1" parent="1">
          <mxGeometry x="496.5" y="430" width="27" height="30" as="geometry" />
        </mxCell>
      </root>
    </mxGraphModel>
  </diagram>
  <diagram id="jgToB_Hv6LG0Cp1Ko7ut" name="Tarefas">
    <mxGraphModel dx="1194" dy="615" grid="1" gridSize="10" guides="1" tooltips="1" connect="1" arrows="1" fold="1" page="1" pageScale="1" pageWidth="850" pageHeight="1100" math="0" shadow="0">
      <root>
        <mxCell id="0" />
        <mxCell id="1" parent="0" />
      </root>
    </mxGraphModel>
  </diagram>
  <diagram id="IO2qRD9AuKol5aekptCg" name="Documentacao">
    <mxGraphModel dx="1194" dy="615" grid="1" gridSize="10" guides="1" tooltips="1" connect="1" arrows="1" fold="1" page="1" pageScale="1" pageWidth="850" pageHeight="1100" math="0" shadow="0">
      <root>
        <mxCell id="0" />
        <mxCell id="1" parent="0" />
        <mxCell id="-qdNCovNljnGZeY5YZcb-1" value="&lt;h1 style=&quot;margin-top: 0px;&quot;&gt;&lt;span style=&quot;background-color: initial;&quot;&gt;Repositórios&lt;/span&gt;&lt;/h1&gt;&lt;h1 style=&quot;margin-top: 0px;&quot;&gt;&lt;span style=&quot;background-color: initial; font-size: 12px; font-weight: normal;&quot;&gt;API PRODUTOS: https://github.com/danielsmanioto/cs-produtos-node-api&lt;/span&gt;&lt;br&gt;&lt;/h1&gt;&lt;p&gt;BANCO DE DADOS: Um docker compose no repo&amp;nbsp;&lt;span style=&quot;background-color: initial;&quot;&gt;https://github.com/danielsmanioto/cs-produtos-node-api&lt;/span&gt;&lt;/p&gt;&lt;div&gt;&lt;span style=&quot;background-color: initial; font-size: 12px; font-weight: normal;&quot;&gt;&lt;br&gt;&lt;/span&gt;&lt;/div&gt;" style="text;html=1;whiteSpace=wrap;overflow=hidden;rounded=0;" vertex="1" parent="1">
          <mxGeometry x="40" y="40" width="730" height="370" as="geometry" />
        </mxCell>
      </root>
    </mxGraphModel>
  </diagram>
</mxfile>
